<svg xmlns="http://www.w3.org/2000/svg" viewBox="0 0 134 175"><defs><style>.cls-1{fill:#fff;}</style></defs><g id="Layer_2" data-name="Layer 2"><g id="Layer_1-2" data-name="Layer 1"><path class="cls-1" d="M133,90s-9,19-24,21c2,1,10,1,12,4,0,0-16,20-43,23,0-11-2-74-2-74l48-7V48.71H76V40s12-6,12-19S75,0,67,0,46,8,46,21,58,40,58,40v8.71H10V57l48,7s-2,63-2,74c-27-3-43-23-43-23,2-3,10-3,12-4C10,109,1,90,1,90L0,123a27.36,27.36,0,0,1,5-4c5,14,62,56,62,56s57-42,62-56a27.36,27.36,0,0,1,5,4ZM67,32.71a11,11,0,1,1,11-11A11,11,0,0,1,67,32.71Z"/></g></g></svg>